<svg width="432" height="421" viewBox="0 0 432 421" fill="none" xmlns="http://www.w3.org/2000/svg">
<g clip-path="url(#clip0_2989_12287)">
<mask id="mask0_2989_12287" style="mask-type:luminance" maskUnits="userSpaceOnUse" x="-1174" y="-774" width="2777" height="1964">
<path d="M-1173.21 -773.699H1602.52V1189.77H-1173.21V-773.699Z" fill="white"/>
</mask>
<g mask="url(#mask0_2989_12287)">
<path d="M216 0C335.292 0 431.979 94.2771 431.979 210.5C431.979 326.723 335.292 421 216 421C96.7076 421 0.0205078 326.723 0.0205078 210.5C0.0205078 94.2771 96.7076 0 216 0Z" fill="black"/>
</g>
<mask id="mask1_2989_12287" style="mask-type:luminance" maskUnits="userSpaceOnUse" x="-1174" y="-774" width="2777" height="1964">
<path d="M-1173.21 -773.699H1602.52V1189.77H-1173.21V-773.699Z" fill="white"/>
</mask>
<g mask="url(#mask1_2989_12287)">
<path d="M319.625 87.783C327.235 87.783 331.039 91.5899 331.039 99.2038V141.752C331.039 145.335 330.144 148.246 328.13 150.261C326.339 152.277 323.43 153.172 319.625 153.172H220.252C216.671 153.172 213.761 154.068 211.747 156.084C209.733 157.875 208.838 160.786 208.838 164.593V342.398C208.838 345.981 207.942 348.893 205.928 350.908C204.137 352.923 201.228 353.819 197.423 353.819H152.661C149.08 353.819 146.17 352.923 144.156 350.908C142.141 348.893 141.246 346.205 141.246 342.398V99.2038C141.246 95.3968 142.365 92.4857 144.156 90.6942C146.17 88.9027 148.856 87.783 152.661 87.783H319.625Z" fill="white"/>
</g>
<mask id="mask2_2989_12287" style="mask-type:luminance" maskUnits="userSpaceOnUse" x="-1174" y="-774" width="2777" height="1964">
<path d="M-1173.21 -773.699H1602.52V1189.77H-1173.21V-773.699Z" fill="white"/>
</mask>
<g mask="url(#mask2_2989_12287)">
<path d="M234.8 232.446C206.376 230.206 68.2831 252.6 57.7639 228.191C40.5303 187.435 185.785 210.5 205.256 210.948C215.104 211.172 227.19 213.187 234.128 211.172C239.052 209.828 242.409 201.766 247.781 198.631C260.091 191.465 279.786 195.496 296.796 196.84C308.434 197.736 319.625 199.079 331.711 199.751C314.477 202.214 295.901 204.678 277.548 206.917C275.31 207.141 271.953 206.469 270.61 208.709C289.186 211.62 310.001 212.292 330.368 213.859C310.672 216.77 288.291 217.442 268.819 221.249C270.162 223.488 273.519 222.816 275.757 223.04C293.215 224.384 312.239 225.728 330.368 226.847C311.344 229.982 289.41 230.43 270.834 234.237C271.281 237.148 275.534 236.253 277.324 236.477C294.558 238.492 314.029 240.955 331.934 242.523C312.239 244.09 287.843 248.569 267.253 249.913C251.81 251.032 242.633 241.851 234.8 232.446Z" fill="white"/>
</g>
<mask id="mask3_2989_12287" style="mask-type:luminance" maskUnits="userSpaceOnUse" x="-1174" y="-774" width="2777" height="1964">
<path d="M-1173.21 -773.699H1602.52V1189.77H-1173.21V-773.699Z" fill="white"/>
</mask>
<g mask="url(#mask3_2989_12287)">
<path d="M185.785 234.685C207.719 232.894 226.295 231.326 235.024 231.998H235.248C239.052 236.701 243.305 241.403 248.452 244.762C253.6 248.121 259.867 250.137 267.7 249.689C278.891 249.017 291.425 247.45 303.51 245.658C312.239 244.538 320.744 243.419 328.801 242.523C320.968 241.851 312.911 240.955 304.853 240.06C295.453 238.94 286.277 237.82 277.772 236.925H276.429C274.415 236.925 271.505 236.925 271.058 234.461V234.237H271.281C281.801 232.222 293.215 231.102 304.629 229.982C312.463 229.311 320.296 228.415 327.682 227.519C314.03 226.623 299.706 225.728 286.277 224.608L276.205 223.936H274.639C272.624 223.936 270.162 223.936 269.043 221.921L268.819 221.473H269.267C280.234 219.234 292.096 218.114 303.958 217.218C312.015 216.546 320.073 215.651 327.682 214.755L315.596 214.083C300.377 213.187 284.934 212.292 271.058 210.052H270.61L270.834 209.604C271.953 207.589 274.191 207.589 276.205 207.589H277.996L292.767 205.573C305.077 204.006 317.387 202.438 329.025 200.647C322.087 200.199 315.149 199.527 308.21 198.855C304.629 198.631 301.048 198.184 297.244 197.96C294.334 197.736 291.201 197.288 288.067 197.064C273.519 195.496 258.3 193.929 248.452 199.751C245.991 201.095 243.976 203.558 241.962 206.021C239.724 208.932 237.486 211.62 234.576 212.292C229.652 213.635 222.49 213.187 215.104 212.515C211.747 212.292 208.614 212.068 205.48 212.068C202.123 212.068 195.185 211.172 185.785 210.276C152.661 206.917 90.8883 200.423 66.7165 210.724C58.2116 214.307 54.6306 219.905 58.2116 228.639C65.3736 244.762 134.979 238.94 185.785 234.685ZM234.8 232.67C226.295 231.998 207.719 233.565 185.785 235.357C134.756 239.612 64.926 245.434 57.5402 228.191C53.7354 219.234 57.5402 213.187 66.2689 209.38C90.6645 198.855 152.437 205.35 185.561 208.709C194.737 209.604 201.676 210.5 205.033 210.5C208.166 210.5 211.3 210.724 214.657 210.948C221.819 211.396 229.205 212.068 233.905 210.724C236.367 210.052 238.605 207.365 240.843 204.678C242.857 202.214 244.871 199.751 247.557 198.184C257.629 192.137 272.848 193.929 287.62 195.496C290.753 195.944 293.886 196.168 296.796 196.392C300.377 196.616 303.958 197.064 307.763 197.288C315.596 197.96 323.43 198.855 331.711 199.303L334.844 199.527L331.711 199.975C319.177 201.767 305.749 203.558 292.32 205.35L277.548 207.365H275.758C274.191 207.365 272.4 207.365 271.281 208.709C284.934 210.724 300.153 211.844 315.149 212.739C320.296 212.963 325.444 213.411 330.368 213.635L333.277 213.859L330.368 214.307C321.863 215.651 312.687 216.546 303.51 217.218C291.872 218.338 280.234 219.458 269.267 221.473C270.386 222.593 272.4 222.593 274.191 222.593H275.758L285.829 223.264C300.377 224.384 315.596 225.504 330.368 226.176L333.501 226.4L330.368 226.847C322.087 228.191 313.134 229.087 304.182 229.982C292.991 231.102 281.577 232.222 271.281 234.237C271.729 236.029 274.191 235.805 275.758 235.805H277.324C286.053 236.925 295.229 238.044 304.406 238.94C313.582 240.06 322.982 240.955 331.935 241.851V242.523C322.982 243.195 313.134 244.538 303.063 245.882C290.977 247.45 278.443 249.241 267.253 249.913C259.195 250.361 252.929 248.345 247.781 244.986C242.857 242.075 238.605 237.372 234.8 232.67Z" fill="white"/>
</g>
</g>
<defs>
<clipPath id="clip0_2989_12287">
<rect width="432" height="421" fill="white"/>
</clipPath>
</defs>
</svg>
