<svg width="2500" height="968" viewBox="0 0 2500 968" fill="none" xmlns="http://www.w3.org/2000/svg">
<g clip-path="url(#clip0_923_53960)">
<mask id="mask0_923_53960" style="mask-type:luminance" maskUnits="userSpaceOnUse" x="-3605" y="-2959" width="9725" height="6875">
<path d="M-3604.67 -2958.6H6119.36V3915.99H-3604.67V-2958.6Z" fill="white"/>
</mask>
<g mask="url(#mask0_923_53960)">
<path d="M2197.91 556.257C2188.11 556.257 2180.76 553.808 2175.05 548.093C2170.15 543.194 2166.88 535.029 2166.88 525.232V223.958C2166.88 214.161 2169.33 205.996 2175.05 201.097C2180.76 196.198 2188.11 193.749 2197.91 193.749H2252.61C2264.86 193.749 2275.47 194.565 2284.45 195.382C2293.43 197.015 2301.6 199.464 2307.31 204.363C2313.84 209.262 2317.93 215.793 2321.19 225.591C2324.46 234.572 2326.09 247.635 2326.09 263.148V486.858C2326.09 507.27 2323.64 521.966 2317.93 531.763C2312.21 541.561 2304.05 548.093 2293.43 551.358C2282.82 554.624 2268.94 556.257 2252.61 555.441L2197.91 556.257ZM2022.37 18.2102C2012.57 19.0266 2004.41 21.476 1999.51 26.3748C1994.61 31.2735 1992.16 39.4381 1992.16 49.2356V700.771C1992.16 710.568 1994.61 717.916 2000.32 723.631C2005.22 728.53 2013.39 731.796 2023.18 731.796H2250.16C2297.51 731.796 2338.34 726.897 2371 717.1C2403.65 707.302 2429.78 691.79 2449.38 672.195C2468.97 652.599 2483.67 626.473 2491.83 595.447C2500.81 564.422 2504.9 528.498 2504.9 486.858V263.148C2504.9 221.509 2500.81 185.584 2491.83 154.559C2482.85 123.533 2468.97 98.2232 2449.38 78.6282C2429.78 58.2167 2403.65 43.5204 2371 33.7229C2338.34 23.9254 2298.33 19.0266 2250.16 19.0266L2022.37 18.2102ZM1725.18 448.485C1725.18 468.08 1724.36 486.042 1723.54 501.554C1721.91 517.067 1718.64 530.131 1713.75 541.561C1708.85 552.991 1700.68 561.156 1689.25 566.871C1678.64 572.586 1663.94 575.852 1645.16 575.852C1626.38 575.852 1611.69 572.586 1601.07 566.871C1589.64 561.156 1582.3 552.991 1576.58 541.561C1571.68 530.947 1568.42 517.067 1566.78 501.554C1565.15 486.042 1564.33 468.08 1565.15 448.485V301.522C1565.15 281.927 1565.97 263.965 1566.78 248.452C1568.42 232.939 1571.68 219.876 1576.58 208.445C1581.48 197.015 1589.64 188.85 1601.07 183.135C1611.69 177.42 1626.38 174.154 1645.16 174.154C1663.94 174.154 1678.64 177.42 1689.25 183.135C1700.68 188.85 1708.03 197.015 1713.75 208.445C1718.64 219.059 1721.91 232.939 1723.54 248.452C1725.18 263.965 1725.18 281.927 1725.18 301.522V448.485ZM1899.9 247.635C1899.9 236.205 1899.08 222.325 1897.45 205.996C1895.82 189.667 1892.55 172.521 1886.84 153.742C1881.12 134.964 1872.96 117.002 1862.34 99.0397C1850.91 81.0776 1836.22 64.7484 1817.44 50.0521C1798.66 35.3558 1774.98 23.1089 1746.4 14.1279C1717.83 5.14681 1683.54 1.06451 1643.53 0.248047C1603.52 0.248047 1569.23 5.14681 1540.66 14.1279C1512.08 23.1089 1488.4 35.3558 1469.62 50.0521C1450.85 64.7484 1436.15 81.0776 1424.72 99.0397C1413.29 117.002 1405.12 135.78 1400.23 153.742C1394.51 172.521 1391.24 189.667 1389.61 205.996C1387.98 222.325 1387.16 236.205 1387.16 247.635V502.371C1387.16 513.801 1387.98 527.681 1389.61 544.01C1391.24 560.339 1394.51 577.485 1400.23 596.264C1405.12 615.042 1414.11 633.004 1424.72 650.967C1436.15 668.929 1450.85 685.258 1469.62 700.771C1488.4 715.467 1512.08 727.714 1540.66 735.878C1569.23 744.859 1603.52 749.758 1643.53 749.758C1683.54 749.758 1717.83 744.859 1746.4 735.878C1774.98 726.897 1798.66 715.467 1817.44 700.771C1836.22 686.074 1850.91 669.745 1862.34 650.967C1873.77 633.004 1881.94 614.226 1886.84 596.264C1891.73 577.485 1895.82 560.339 1897.45 544.01C1899.08 527.681 1899.9 513.801 1899.9 502.371V247.635ZM1131.61 448.485C1131.61 468.08 1130.79 486.042 1129.98 501.554C1128.34 517.067 1125.08 530.131 1120.18 541.561C1115.28 552.991 1107.12 561.156 1095.69 566.871C1085.07 572.586 1070.38 575.852 1051.6 575.852C1032.82 575.852 1018.12 572.586 1007.51 566.871C996.078 561.156 988.73 552.991 983.015 541.561C978.116 530.947 974.85 517.067 973.217 501.554C971.584 486.042 970.768 468.08 971.584 448.485V301.522C971.584 281.927 972.401 263.965 973.217 248.452C974.85 232.939 978.116 219.876 983.015 208.445C987.913 197.015 996.078 188.85 1007.51 183.135C1018.12 177.42 1032.82 174.154 1051.6 174.154C1070.38 174.154 1085.07 177.42 1095.69 183.135C1107.12 188.85 1114.46 197.015 1120.18 208.445C1125.08 219.059 1128.34 232.939 1129.98 248.452C1131.61 263.965 1131.61 281.927 1131.61 301.522V448.485ZM1307.15 247.635C1307.15 236.205 1306.33 222.325 1304.7 205.996C1303.07 189.667 1299.8 172.521 1294.09 153.742C1288.37 134.964 1280.21 117.002 1269.59 99.0397C1258.16 81.0776 1243.47 64.7484 1224.69 50.0521C1205.91 35.3558 1182.23 23.1089 1153.65 14.1279C1125.08 5.14681 1090.79 1.06451 1050.78 0.248047C1010.77 0.248047 976.483 5.14681 947.907 14.1279C919.331 23.1089 895.653 35.3558 876.875 50.0521C858.096 64.7484 843.4 81.0776 831.969 99.0397C820.539 117.002 812.374 135.78 807.476 153.742C801.76 172.521 798.495 189.667 796.862 205.996C795.229 222.325 794.412 236.205 794.412 247.635V502.371C794.412 513.801 795.229 527.681 796.862 544.01C798.495 560.339 801.76 577.485 807.476 596.264C812.374 615.042 821.355 633.004 831.969 650.967C843.4 668.929 858.096 685.258 876.875 700.771C895.653 715.467 919.331 727.714 947.907 735.878C976.483 744.859 1010.77 749.758 1050.78 749.758C1090.79 749.758 1125.08 744.859 1153.65 735.878C1182.23 726.897 1205.91 715.467 1224.69 700.771C1243.47 686.074 1258.16 669.745 1269.59 650.967C1281.02 633.004 1289.19 614.226 1294.09 596.264C1298.98 577.485 1303.07 560.339 1304.7 544.01C1306.33 527.681 1307.15 513.801 1307.15 502.371V247.635ZM704.602 18.2102C725.013 18.2102 734.811 28.8241 734.811 48.4192V162.724C734.811 172.521 732.361 179.869 727.463 185.584C722.564 191.3 714.399 193.749 704.602 193.749H438.436C428.638 193.749 421.29 196.198 415.575 201.097C409.86 205.996 407.41 214.161 407.41 223.958V701.587C407.41 711.385 404.961 718.733 400.062 724.448C395.163 729.347 386.999 732.613 377.201 732.613H257.182C247.384 732.613 240.036 730.163 234.321 724.448C229.422 718.733 226.156 711.385 226.156 701.587V49.2356C226.156 39.4381 228.606 31.2735 234.321 26.3748C240.036 21.476 247.384 19.0266 257.182 19.0266L704.602 18.2102Z" fill="white"/>
</g>
<mask id="mask1_923_53960" style="mask-type:luminance" maskUnits="userSpaceOnUse" x="-3605" y="-2959" width="9725" height="6875">
<path d="M-3604.67 -2958.6H6119.36V3915.99H-3604.67V-2958.6Z" fill="white"/>
</mask>
<g mask="url(#mask1_923_53960)">
<path d="M2458.36 891.006C2458.36 890.189 2457.54 890.189 2457.54 889.373C2457.54 888.556 2457.54 888.556 2458.36 887.74L2499.18 832.22C2500.81 829.771 2500.81 828.138 2500 827.322C2499.18 826.505 2497.55 824.872 2495.1 824.872H2465.71C2464.07 824.872 2462.44 824.872 2461.62 825.689C2460.81 826.505 2459.17 827.322 2458.36 828.955L2426.52 872.227C2425.7 873.043 2425.7 873.043 2424.88 873.043C2424.07 873.043 2424.07 872.227 2424.07 871.411V831.404C2424.07 827.322 2422.43 825.689 2418.35 825.689H2395.49C2393.86 825.689 2392.22 826.505 2391.41 827.322C2390.59 828.138 2389.78 829.771 2389.78 832.22V961.221C2389.78 962.854 2390.59 964.487 2391.41 965.303C2392.22 966.12 2393.86 966.936 2395.49 966.936H2418.35C2419.98 966.936 2421.62 966.12 2423.25 965.303C2424.88 964.487 2424.88 962.854 2424.88 961.221V939.177V937.544C2424.88 936.727 2424.88 936.727 2425.7 935.911L2433.86 924.48C2433.86 923.664 2434.68 923.664 2435.5 923.664C2436.31 923.664 2436.31 923.664 2437.13 924.48L2462.44 962.854C2463.26 964.487 2464.07 965.303 2465.71 966.12C2466.52 966.936 2468.16 966.936 2469.79 966.936H2500C2502.45 966.936 2504.08 966.12 2504.9 964.487C2505.71 962.854 2505.71 961.221 2504.08 959.588L2458.36 891.006ZM2275.47 824.872C2273.84 824.872 2272.21 825.689 2271.39 826.505C2270.57 827.322 2269.76 828.955 2269.76 831.404V921.215C2269.76 923.664 2269.76 926.113 2270.57 929.379C2270.57 932.645 2271.39 935.911 2273.02 939.993C2273.84 943.259 2275.47 947.341 2277.92 950.607C2280.37 953.873 2282.82 957.139 2286.9 960.405C2290.98 963.67 2295.07 965.303 2300.78 967.753C2306.5 969.386 2313.03 970.202 2321.19 970.202C2329.36 970.202 2335.89 969.386 2341.6 967.753C2347.32 966.12 2352.22 963.67 2355.48 960.405C2359.57 957.139 2362.02 953.873 2364.47 950.607C2366.91 947.341 2368.55 943.259 2369.36 939.993C2370.18 936.727 2371 932.645 2371 929.379C2371 926.113 2371.81 923.664 2371.81 921.215V831.404C2371.81 827.322 2370.18 825.689 2366.1 825.689H2343.24C2341.6 825.689 2339.97 826.505 2339.15 827.322C2338.34 828.138 2337.52 829.771 2337.52 832.22V922.031C2337.52 925.297 2336.71 927.746 2335.89 930.196C2335.07 932.645 2333.44 934.278 2330.99 935.094C2328.54 935.911 2326.09 936.727 2322.01 936.727C2317.93 936.727 2315.48 935.911 2313.03 935.094C2310.58 934.278 2308.95 932.645 2308.13 930.196C2307.31 927.746 2306.5 925.297 2306.5 922.031C2306.5 918.765 2305.68 915.499 2306.5 911.417V832.22C2306.5 828.138 2304.86 826.505 2300.78 826.505L2275.47 824.872ZM2249.34 931.012C2253.43 931.012 2255.06 932.645 2255.06 936.727V959.588C2255.06 961.221 2254.24 962.854 2253.43 963.671C2252.61 964.487 2250.98 965.303 2248.53 965.303H2225.67C2224.03 965.303 2222.4 964.487 2221.58 963.671C2220.77 962.854 2219.95 961.221 2219.95 959.588V936.727C2219.95 935.094 2220.77 933.461 2221.58 931.829C2222.4 931.012 2224.03 930.196 2225.67 930.196L2249.34 931.012ZM2170.15 909.784V920.398C2170.15 923.664 2169.33 926.113 2168.51 928.563C2167.7 931.012 2166.07 932.645 2163.62 933.462C2161.17 934.278 2158.72 935.094 2154.63 935.094C2150.55 935.094 2148.1 934.278 2145.65 933.462C2143.2 932.645 2141.57 931.012 2140.76 928.563C2139.94 926.113 2139.12 923.664 2139.12 920.398C2139.12 917.132 2138.31 913.866 2139.12 909.784V881.208V870.594C2139.12 867.328 2139.94 864.879 2140.76 862.429C2141.57 859.98 2143.2 858.347 2145.65 857.531C2148.1 856.714 2150.55 855.898 2154.63 855.898C2158.72 855.898 2161.17 856.714 2163.62 857.531C2166.07 858.347 2167.7 859.98 2168.51 862.429C2169.33 864.879 2170.15 867.328 2170.15 870.594V909.784ZM2205.26 869.778C2205.26 867.328 2205.26 864.879 2204.44 861.613C2204.44 858.347 2203.62 855.081 2202.81 850.999C2201.99 847.733 2200.36 843.651 2197.91 840.385C2195.46 837.119 2193.01 833.853 2188.93 830.588C2184.84 827.322 2180.76 825.689 2175.05 823.239C2169.33 821.607 2162.8 820.79 2154.63 820.79C2146.47 820.79 2139.94 821.607 2134.22 823.239C2128.51 824.872 2123.61 827.322 2120.34 830.588C2116.26 833.853 2113.81 837.119 2111.36 840.385C2108.91 843.651 2107.28 847.733 2106.46 850.999C2105.65 854.265 2104.83 858.347 2104.01 861.613C2104.01 864.879 2103.2 867.328 2103.2 869.778V920.398C2103.2 922.847 2103.2 925.297 2104.01 928.563C2104.01 931.829 2104.83 935.094 2106.46 939.177C2107.28 942.443 2108.91 946.525 2111.36 949.791C2113.81 953.057 2116.26 956.322 2120.34 959.588C2124.43 962.854 2128.51 964.487 2134.22 966.936C2139.94 968.569 2146.47 969.386 2154.63 969.386C2162.8 969.386 2169.33 968.569 2175.05 966.936C2180.76 965.303 2185.66 962.854 2188.93 959.588C2193.01 956.322 2195.46 953.057 2197.91 949.791C2200.36 946.525 2201.99 942.443 2202.81 939.177C2203.62 935.911 2204.44 931.829 2204.44 928.563C2204.44 925.297 2205.26 922.847 2205.26 920.398V869.778ZM1991.34 920.398C1991.34 922.847 1991.34 925.297 1992.16 928.563C1992.16 931.829 1992.98 935.094 1994.61 939.177C1995.43 942.443 1997.06 946.525 1999.51 949.791C2001.96 953.057 2004.41 956.322 2008.49 959.588C2012.57 962.854 2016.65 964.487 2022.37 966.936C2028.08 968.569 2034.62 969.386 2042.78 969.386C2050.13 969.386 2055.84 968.569 2061.56 966.936C2066.46 965.303 2071.36 963.67 2074.62 961.221C2077.89 958.772 2081.15 956.322 2083.6 953.057C2086.05 949.791 2087.69 946.525 2089.32 943.259C2090.95 939.993 2091.77 936.727 2091.77 933.462C2092.58 930.196 2092.58 927.746 2092.58 924.48C2092.58 922.847 2092.58 922.031 2091.77 920.398C2090.95 919.582 2090.13 918.765 2088.5 918.765L2065.64 913.866C2064.01 913.05 2061.56 913.866 2060.74 914.683C2059.11 915.499 2058.29 917.132 2058.29 919.582C2058.29 922.848 2057.48 925.297 2055.84 927.746C2055.03 930.196 2053.39 931.829 2050.94 932.645C2048.5 933.461 2046.05 934.278 2041.96 934.278C2037.88 934.278 2035.43 933.461 2032.98 932.645C2030.53 931.829 2028.9 930.196 2028.08 927.746C2027.27 925.297 2026.45 922.848 2026.45 919.582C2026.45 916.316 2025.63 913.05 2026.45 908.968V880.392V869.778C2026.45 866.512 2027.27 864.062 2028.08 861.613C2028.9 859.164 2030.53 857.531 2032.98 856.714C2035.43 855.898 2037.88 855.081 2041.96 855.081C2045.23 855.081 2048.5 855.898 2050.94 856.714C2053.39 857.531 2055.03 859.164 2055.84 861.613C2056.66 864.062 2057.48 866.512 2057.48 868.961C2057.48 871.411 2058.29 873.043 2059.93 873.86C2061.56 874.676 2063.19 875.493 2065.64 875.493L2087.69 870.594C2089.32 870.594 2090.13 869.778 2090.95 868.961C2091.77 868.145 2091.77 866.512 2091.77 865.695C2091.77 863.246 2090.95 859.98 2090.95 856.714L2088.5 846.917C2086.87 843.651 2085.24 840.385 2082.79 837.119C2080.34 833.853 2077.07 831.404 2073.81 828.955C2069.72 826.505 2065.64 824.872 2060.74 823.239C2055.84 821.607 2049.31 820.79 2041.96 820.79C2033.8 820.79 2027.27 821.607 2021.55 823.239C2015.84 824.872 2010.94 827.322 2007.67 830.588C2003.59 833.853 2001.14 837.119 1998.69 840.385C1996.24 843.651 1994.61 847.733 1993.79 850.999C1992.98 854.265 1992.16 858.347 1991.34 861.613C1991.34 864.879 1990.53 867.328 1990.53 869.778V920.398H1991.34ZM1972.56 931.012C1976.65 931.012 1978.28 932.645 1978.28 936.727V959.588C1978.28 961.221 1977.46 962.854 1976.65 963.671C1975.83 964.487 1974.2 965.303 1971.75 965.303H1948.89C1947.25 965.303 1945.62 964.487 1944.8 963.671C1943.99 962.854 1943.17 961.221 1943.17 959.588V936.727C1943.17 935.094 1943.99 933.461 1944.8 931.829C1945.62 931.012 1947.25 930.196 1948.89 930.196L1972.56 931.012Z" fill="white"/>
</g>
<mask id="mask2_923_53960" style="mask-type:luminance" maskUnits="userSpaceOnUse" x="-3605" y="-2959" width="9725" height="6875">
<path d="M-3604.67 -2958.6H6119.36V3915.99H-3604.67V-2958.6Z" fill="white"/>
</mask>
<g mask="url(#mask2_923_53960)">
<path d="M477.626 406.029C401.695 399.497 31.0222 459.915 3.2626 394.598C-43.2756 286.009 346.176 347.244 398.429 348.877C424.556 349.693 457.214 354.592 475.993 349.693C489.056 345.611 498.037 324.383 512.734 316.218C545.392 296.623 598.462 307.237 644.184 311.319C675.209 313.769 705.418 317.035 738.076 319.484C691.538 326.016 641.734 332.547 592.747 339.079C587.031 339.896 578.05 337.446 573.968 343.978C623.772 352.142 680.108 353.775 733.994 357.858C680.924 366.022 621.323 367.655 569.069 377.453C572.335 383.168 582.133 381.535 587.848 382.351C634.386 385.617 685.823 389.7 734.811 392.149C684.19 400.314 625.405 401.946 574.784 411.744C576.417 419.909 587.031 417.459 591.93 417.459C638.468 423.174 690.722 429.706 738.893 433.788C685.823 437.871 620.506 450.118 565.803 453.383C523.348 455.833 498.037 431.339 477.626 406.029Z" fill="white"/>
</g>
<mask id="mask3_923_53960" style="mask-type:luminance" maskUnits="userSpaceOnUse" x="-3605" y="-2959" width="9725" height="6875">
<path d="M-3604.67 -2958.6H6119.36V3915.99H-3604.67V-2958.6Z" fill="white"/>
</mask>
<g mask="url(#mask3_923_53960)">
<path d="M346.176 412.56C404.961 407.662 454.765 403.579 477.626 405.212C488.24 418.275 498.854 430.522 513.55 439.503C527.43 448.484 543.759 454.2 564.987 452.567C595.196 450.934 628.671 446.035 661.329 441.953C685.007 438.687 707.867 435.421 729.095 433.788C707.867 432.155 686.64 429.706 664.595 427.257C639.285 424.807 614.791 421.541 591.93 418.275H587.848C582.133 418.275 574.785 418.275 573.968 411.744V410.927H574.785C602.544 405.212 633.57 401.946 664.595 399.497C685.823 397.864 707.051 395.415 726.646 392.965C689.905 390.516 651.532 388.066 615.608 385.617C606.626 384.801 597.645 383.984 588.664 383.984H584.582C578.867 383.984 572.335 383.984 569.069 379.085L568.253 378.269H569.069C598.462 372.554 630.304 369.288 662.146 366.839C683.374 365.206 705.418 362.756 725.83 360.307C715.216 359.49 703.785 358.674 693.171 357.857C652.348 355.408 610.709 352.959 573.968 347.243H572.335L573.152 346.427C576.417 341.528 582.133 341.528 587.031 341.528H591.93L631.12 336.63C663.779 332.547 697.253 327.648 728.279 323.566C709.5 321.933 690.722 320.3 672.76 318.667C662.962 317.851 653.981 317.034 643.367 316.218L618.873 313.769C579.683 309.686 538.86 304.788 512.734 321.117C506.202 325.199 500.487 331.731 495.588 338.262C489.056 345.611 483.341 352.959 475.993 355.408C462.929 358.674 443.334 357.857 423.739 356.225C414.758 355.408 405.777 354.592 397.613 354.592C388.632 354.592 369.853 352.142 345.359 349.693C257.182 335.813 91.4403 318.667 26.9399 346.427C4.07906 356.225 -5.71846 370.921 4.07906 394.598C22.8576 439.503 209.01 423.991 346.176 412.56ZM477.626 406.845C454.765 405.212 404.961 409.294 346.176 414.193C209.01 425.624 22.0412 441.136 2.44614 394.598C-8.16784 370.104 2.44614 354.592 26.1235 343.978C91.4403 316.218 257.182 333.364 346.176 342.345C370.67 344.794 389.448 347.243 398.429 347.243C406.594 347.243 415.575 348.06 424.556 348.876C444.151 350.509 462.929 351.326 475.993 348.06C482.525 346.427 488.24 339.079 494.771 331.731C500.487 325.199 505.385 318.667 512.734 314.585C539.677 298.256 580.5 303.155 620.506 307.237L645 309.686C653.981 310.503 664.595 311.319 674.393 312.136C695.621 313.769 716.849 316.218 738.893 317.034L747.874 317.851L739.709 319.484C706.235 324.383 670.31 329.281 634.386 334.18L595.196 339.079H590.297C586.215 339.079 581.316 339.079 578.05 342.345C614.791 348.06 655.614 350.509 696.437 352.959C710.317 353.775 723.38 354.592 737.26 355.408L745.425 356.225L737.26 357.041C714.399 360.307 689.905 362.756 665.412 365.206C634.386 368.471 602.544 370.921 573.968 376.636C576.417 379.902 582.133 379.902 587.031 379.902H591.114C600.095 380.718 609.076 381.535 618.057 381.535C657.247 384.801 698.07 387.25 737.26 389.699L745.425 390.516L737.26 392.149C714.399 395.415 690.722 397.864 667.044 400.313C636.835 403.579 606.626 406.029 578.867 411.744C580.5 416.643 586.215 415.826 591.114 415.826H595.196C618.873 418.275 643.367 421.541 667.861 424.807C692.355 427.257 717.665 430.522 741.342 432.155V433.788C717.665 435.421 690.722 439.503 663.779 442.769C631.12 446.852 597.645 451.75 567.436 453.383C546.208 455.016 529.063 449.301 515.183 440.32C498.854 432.155 487.423 419.908 477.626 406.845Z" fill="white"/>
</g>
</g>
<defs>
<clipPath id="clip0_923_53960">
<rect width="2500" height="968" fill="white"/>
</clipPath>
</defs>
</svg>
